<?xml version="1.0" encoding="utf-8"?>
<!-- Generator: Adobe Illustrator 22.0.1, SVG Export Plug-In . SVG Version: 6.00 Build 0)  -->
<svg version="1.1" xmlns="http://www.w3.org/2000/svg" xmlns:xlink="http://www.w3.org/1999/xlink" x="0px" y="0px"
	 viewBox="0 0 1920 1080" style="enable-background:new 0 0 1920 1080;" xml:space="preserve">
<style type="text/css">
	.st0{display:none;}
	.st1{display:inline;}
	.st2{fill:#FFFFFF;}
	.st3{display:inline;fill:#2CAAFF;}
	.st4{opacity:0.2;clip-path:url(#SVGID_2_);fill:#272425;}
	.st5{opacity:0.2;clip-path:url(#SVGID_4_);fill:#272425;}
	.st6{clip-path:url(#SVGID_6_);fill:#1D487C;}
	.st7{clip-path:url(#SVGID_8_);fill:#1D487C;}
	.st8{clip-path:url(#SVGID_10_);fill:#1D487C;}
	.st9{fill:#1D487C;}
	.st10{fill:#2CAAFF;}
	.st11{opacity:0.2;clip-path:url(#SVGID_12_);fill:#272425;}
	.st12{opacity:0.2;clip-path:url(#SVGID_14_);fill:#272425;}
	.st13{clip-path:url(#SVGID_16_);fill:#2CAAFF;}
	.st14{clip-path:url(#SVGID_18_);fill:#2CAAFF;}
	.st15{clip-path:url(#SVGID_20_);fill:#2CAAFF;}
</style>
<g id="LOGO_1_-_COLOR_1_copia" class="st0">
	<g class="st1">
		<path class="st2" d="M935.6,379.2v99.3h-17v-70.3l-32.8,50.6l-32.6-50.6v70.3h-17v-99.3h18.6l31.1,48.2l31.2-48.2H935.6z"/>
		<path class="st2" d="M976.7,396.3v24.1h37l4.3,17h-41.3v24.1h49.8v17h-66.8v-99.3h66.8v17H976.7z"/>
		<path class="st2" d="M1117.6,379.3v59.6c0,5.8-1.1,11.2-3.3,16.2c-2.2,5.1-5.2,9.5-8.9,13.3c-3.8,3.8-8.2,6.8-13.3,8.9
			c-5.1,2.2-10.5,3.3-16.3,3.3c-5.8,0-11.2-1.1-16.2-3.3c-5-2.2-9.4-5.2-13.2-8.9l12.1-12.1c4.8,4.8,10.6,7.2,17.3,7.2
			c6.9,0,12.8-2.4,17.6-7.2c2.4-2.4,4.2-5,5.4-8c1.2-3,1.8-6.1,1.8-9.4v-59.6H1117.6z"/>
		<path class="st2" d="M1158.7,478.6h-17v-99.1h17V478.6z"/>
		<path class="st2" d="M1288.3,478.6h-18.7l-7.7-17l-7.7-17l-20.1-44.5l-20.1,44.5h25.8l7.7,17h-41.1l-7.7,17H1180l44.8-99.3h18.7
			L1288.3,478.6z"/>
		<path class="st2" d="M1374.3,450.2c0,4.6-0.8,8.8-2.3,12.6c-1.5,3.7-3.7,6.9-6.5,9.5c-2.8,2.6-6.2,4.6-10.1,6
			c-4,1.4-8.4,2.1-13.3,2.1c-7.8,0-14.8-1.3-21-3.8c-6.1-2.5-11.2-5.4-15.2-8.6l11.8-11.8c3.1,2.8,6.6,5,10.5,6.5
			c2.4,0.9,4.6,1.6,6.7,1.8c2.1,0.3,3.8,0.4,5.1,0.4c2.5,0,4.7-0.3,6.7-0.9c2-0.6,3.8-1.4,5.3-2.5c3.2-2.4,4.8-5.5,4.8-9.4
			c0-2.4-0.9-4.5-2.6-6.4c-1.3-1.5-3-2.7-5.1-3.7c-1.7-0.9-3.5-1.7-5.4-2.3c-1.9-0.6-3.6-1.1-5.1-1.6c-0.5-0.2-0.9-0.3-1.3-0.4
			c-0.4,0-0.7-0.2-1-0.4c-0.2,0-0.5-0.1-0.9-0.3c-2-0.6-4.8-1.6-8.6-3c-3.7-1.4-7.4-3.4-11.1-5.8c-8.6-5.8-12.9-12.9-12.9-21.3
			c0-5.6,1-10.3,2.9-14.1c1.9-3.8,4.5-6.9,7.6-9.4s6.6-4.1,10.4-5.2c3.8-1,7.6-1.6,11.3-1.6c6.8,0,12.5,0.8,17.2,2.4
			c4.6,1.6,8.3,3.2,11.1,4.8c1.4,0.9,2.6,1.7,3.6,2.5c1,0.8,1.9,1.5,2.6,2.2l-12.1,12.2c-2.6-2.6-5.2-4.5-7.8-5.8
			c-4-1.9-8.1-2.8-12.5-2.8c-1.9,0-3.8,0.2-5.7,0.7c-1.9,0.5-3.5,1.1-5,1.8c-4.2,2.6-6.2,5.9-6.2,10.1c0,2.6,0.9,4.7,2.6,6.5
			c1.2,1.4,2.9,2.7,5.1,3.8c1.8,0.9,3.7,1.7,5.7,2.3s3.8,1.1,5.5,1.6l1.7,0.4c0.5,0.2,1.4,0.5,2.7,0.9c1.3,0.4,2.9,0.9,4.7,1.7
			c1.8,0.8,3.8,1.7,5.9,2.7c2.1,1,4.2,2.3,6.3,3.7C1369.7,434.9,1374.3,442,1374.3,450.2z"/>
	</g>
	<g class="st1">
		<path class="st2" d="M867.4,563.5h-12.1c-2.5,0-4.8-0.5-7-1.4c-2.2-1-4.1-2.3-5.7-3.9c-1.6-1.6-2.9-3.6-3.8-5.8
			c-1-2.2-1.4-4.5-1.4-7v-47.9l13.2-3.3v21h7.7l3.3,13.2h-11v17c0,1.4,0.5,2.6,1.4,3.5c1,1,2.1,1.4,3.4,1.4h8.8L867.4,563.5z"/>
		<path class="st2" d="M909.7,542.7h-28.8c0.7,1.7,1.8,3.2,3.2,4.5c1.5,1.5,3.3,2.7,5.2,3.5c1.9,0.8,3.9,1.2,6,1.2
			c3,0,5.7-0.7,8-2.1l13.7,5.5c-2.6,3.1-5.8,5.5-9.6,7.2s-7.8,2.6-12.2,2.6c-4,0-7.8-0.8-11.3-2.3s-6.6-3.6-9.2-6.2
			s-4.7-5.7-6.2-9.2c-1.5-3.5-2.3-7.2-2.3-11.2c0-4,0.8-7.8,2.3-11.3c1.5-3.5,3.6-6.6,6.2-9.2c2.6-2.6,5.7-4.7,9.2-6.2
			c3.5-1.5,7.3-2.3,11.3-2.3c4,0,7.8,0.8,11.3,2.3c3.5,1.5,6.6,3.6,9.2,6.2c2.6,2.6,4.7,5.7,6.2,9.2c1.5,3.5,2.3,7.3,2.3,11.3
			c0,2.3-0.3,4.5-0.8,6.6H909.7z M895.3,520.2c-4.2,0-8,1.5-11.2,4.6c-1.4,1.4-2.5,2.9-3.2,4.6h28.8c-0.7-1.7-1.8-3.2-3.2-4.6
			C903.4,521.8,899.7,520.2,895.3,520.2z"/>
		<path class="st2" d="M978.2,556.5c-2.6,2.6-5.7,4.7-9.2,6.2c-3.5,1.5-7.3,2.3-11.3,2.3c-4,0-7.8-0.8-11.3-2.3s-6.6-3.6-9.2-6.2
			s-4.7-5.7-6.2-9.2c-1.5-3.5-2.3-7.2-2.3-11.2c0-4,0.8-7.8,2.3-11.3c1.5-3.5,3.6-6.6,6.2-9.2c2.6-2.6,5.7-4.7,9.2-6.2
			c3.5-1.5,7.3-2.3,11.3-2.3c4,0,7.8,0.8,11.3,2.3c3.5,1.5,6.6,3.6,9.2,6.2l-9.3,9.3c-3.1-3.1-6.8-4.6-11.2-4.6
			c-4.2,0-8,1.5-11.2,4.6c-3.1,3.1-4.6,6.8-4.6,11.2c0,4.3,1.5,8,4.6,11.1c1.5,1.5,3.3,2.7,5.2,3.5c1.9,0.8,3.9,1.2,6,1.2
			c4.5,0,8.2-1.5,11.2-4.6L978.2,556.5z"/>
		<path class="st2" d="M1010.3,507.1c3.6,0,6.8,0.7,9.8,2c2.9,1.4,5.4,3.2,7.5,5.6c2.1,2.4,3.7,5.1,4.8,8.3
			c1.1,3.1,1.7,6.5,1.7,10.1v30.4H1021v-30.4c0-1.8-0.3-3.4-1-4.9c-0.7-1.5-1.6-2.9-2.9-4.2c-2.5-2.5-5.5-3.7-9-3.7
			c-3.6,0-6.6,1.2-9.1,3.7c-2.5,2.5-3.7,5.5-3.7,9.1v30.4h-13.2v-76.9h13.2V513c2-1.8,4.2-3.2,6.7-4.3
			C1004.4,507.6,1007.2,507.1,1010.3,507.1z"/>
		<path class="st2" d="M1068.4,507.1c3.6,0,6.8,0.7,9.8,2c2.9,1.4,5.4,3.2,7.5,5.6c2.1,2.4,3.7,5.1,4.8,8.3
			c1.1,3.1,1.7,6.5,1.7,10.1v30.4h-13.2v-30.4c0-3.7-1.3-6.7-3.8-9.1c-2.5-2.5-5.5-3.7-9-3.7c-3.6,0-6.6,1.2-9.1,3.7
			c-2.5,2.5-3.7,5.5-3.7,9.1v30.4h-13.2v-54.9h13.2v4.2c2-1.7,4.2-3.1,6.7-4.1C1062.6,507.6,1065.3,507.1,1068.4,507.1z"/>
		<path class="st2" d="M1126.2,507.1c4,0,7.8,0.8,11.3,2.3c3.5,1.5,6.6,3.6,9.2,6.2c2.6,2.6,4.7,5.7,6.2,9.2
			c1.5,3.5,2.3,7.3,2.3,11.3c0,4-0.8,7.7-2.3,11.2c-1.5,3.5-3.6,6.6-6.2,9.2s-5.7,4.7-9.2,6.2c-3.5,1.5-7.3,2.3-11.3,2.3
			s-7.8-0.8-11.3-2.3s-6.6-3.6-9.2-6.2c-2.6-2.6-4.7-5.7-6.2-9.2c-1.5-3.5-2.3-7.2-2.3-11.2c0-4,0.8-7.8,2.3-11.3
			c1.5-3.5,3.6-6.6,6.2-9.2c2.6-2.6,5.7-4.7,9.2-6.2C1118.4,507.8,1122.2,507.1,1126.2,507.1z M1126.2,520.2
			c-4.4,0-8.1,1.5-11.2,4.6c-3.1,3.1-4.6,6.8-4.6,11.2c0,4.3,1.5,8,4.6,11.1c1.5,1.5,3.2,2.7,5.1,3.5c1.9,0.8,4,1.2,6.1,1.2
			s4.1-0.4,6-1.2c1.9-0.8,3.6-1.9,5.2-3.5c3.1-3.1,4.6-6.8,4.6-11.1c0-4.4-1.5-8.1-4.6-11.2C1134.2,521.8,1130.4,520.2,1126.2,520.2
			z"/>
		<path class="st2" d="M1161.2,563.5v-76.9h13.2v76.9H1161.2z"/>
		<path class="st2" d="M1209.5,507.1c4,0,7.8,0.8,11.3,2.3c3.5,1.5,6.6,3.6,9.2,6.2c2.6,2.6,4.7,5.7,6.2,9.2
			c1.5,3.5,2.3,7.3,2.3,11.3c0,4-0.8,7.7-2.3,11.2c-1.5,3.5-3.6,6.6-6.2,9.2s-5.7,4.7-9.2,6.2c-3.5,1.5-7.3,2.3-11.3,2.3
			s-7.8-0.8-11.3-2.3s-6.6-3.6-9.2-6.2c-2.6-2.6-4.7-5.7-6.2-9.2c-1.5-3.5-2.3-7.2-2.3-11.2c0-4,0.8-7.8,2.3-11.3
			c1.5-3.5,3.6-6.6,6.2-9.2c2.6-2.6,5.7-4.7,9.2-6.2C1201.7,507.8,1205.4,507.1,1209.5,507.1z M1209.5,520.2
			c-4.4,0-8.1,1.5-11.2,4.6c-3.1,3.1-4.6,6.8-4.6,11.2c0,4.3,1.5,8,4.6,11.1c1.5,1.5,3.2,2.7,5.1,3.5c1.9,0.8,4,1.2,6.1,1.2
			s4.1-0.4,6-1.2c1.9-0.8,3.6-1.9,5.2-3.5c3.1-3.1,4.6-6.8,4.6-11.1c0-4.4-1.5-8.1-4.6-11.2C1217.4,521.8,1213.7,520.2,1209.5,520.2
			z"/>
		<path class="st2" d="M1300.8,558c0,4-0.8,7.7-2.3,11.2c-1.5,3.5-3.6,6.6-6.2,9.2c-2.6,2.6-5.7,4.7-9.2,6.3
			c-3.5,1.5-7.3,2.3-11.3,2.3c-3.3,0-6.4-0.5-9.3-1.5c-2.9-1-5.6-2.5-8.1-4.4l9.6-9.4c2.3,1.5,5,2.2,7.9,2.2c4.5,0,8.2-1.6,11.2-4.7
			c3.1-3.1,4.6-6.8,4.6-11.1V536c0-4.2-1.5-8-4.6-11.2c-3.1-3.1-6.8-4.6-11.2-4.6c-4.2,0-8,1.5-11.2,4.6c-3.1,3.2-4.6,7-4.6,11.2
			c0,4.4,1.5,8.1,4.6,11.2c3.2,3.1,7,4.6,11.2,4.6c2.2,0,4.2-0.4,5.9-1.1l4.9,12.3c-3.3,1.3-6.8,2-10.7,2h-0.2
			c-4,0-7.7-0.8-11.2-2.3s-6.6-3.6-9.2-6.2c-2.6-2.6-4.7-5.7-6.3-9.2c-1.5-3.5-2.3-7.3-2.3-11.3c0-4,0.7-7.8,2-11.3
			c1.3-3.5,3.2-6.6,5.5-9.2c2.4-2.6,5.2-4.7,8.6-6.2c3.3-1.5,7-2.3,10.9-2.3c3.8,0,7.2,0.6,10.1,1.7c2.9,1.1,5.5,2.5,7.7,4.2v-4.3
			h13.2V558z"/>
		<path class="st2" d="M1369.6,508.6l-25.5,54.9l-3.4,7.5c-2.1,4.5-5.1,8-9.2,10.7c-4.1,2.6-8.6,4-13.6,4h-5.8l3.3-13.2h3.2
			c2.1,0,4.1-0.6,5.9-1.8c1.8-1.2,3.2-2.7,4.1-4.7l1.1-2.4l-25.5-54.9h14.5l18.2,39.3l18.2-39.3H1369.6z"/>
	</g>
	<circle class="st3" cx="633.9" cy="480.6" r="155.2"/>
	<g class="st1">
		<g>
			<defs>
				<path id="SVGID_1_" d="M747.5,480.3c0-62.7-52.2-113.6-116.5-113.6s-116.5,50.9-116.5,113.6c0,62.7,52.2,113.6,116.5,113.6
					S747.5,543,747.5,480.3z"/>
			</defs>
			<clipPath id="SVGID_2_">
				<use xlink:href="#SVGID_1_"  style="overflow:visible;"/>
			</clipPath>
			<path class="st4" d="M529.2,533.4c0,0,51.6,54.6,171.1,38.8c29.5,0,41.3-2.9,41.3-2.9s-3.4-38.7-7.9-35.8
				c-4.4,2.9-154.4-0.1-216.3-30.3C495.3,543.4,529.2,533.4,529.2,533.4z"/>
		</g>
		<g>
			<defs>
				<path id="SVGID_3_" d="M747.5,480.3c0-62.7-52.2-113.6-116.5-113.6s-116.5,50.9-116.5,113.6c0,62.7,52.2,113.6,116.5,113.6
					S747.5,543,747.5,480.3z"/>
			</defs>
			<clipPath id="SVGID_4_">
				<use xlink:href="#SVGID_3_"  style="overflow:visible;"/>
			</clipPath>
			<path class="st5" d="M518.9,455.7c0,0,72.3,46.9,230.1,32.5c2.9-8.6-3.2-31.7-3.2-31.7s-138.4,0.6-210.7-35.4
				C513,426.9,520.4,435.6,518.9,455.7z"/>
		</g>
		<g>
			<defs>
				<path id="SVGID_5_" d="M747.5,480.3c0-62.7-52.2-113.6-116.5-113.6s-116.5,50.9-116.5,113.6c0,62.7,52.2,113.6,116.5,113.6
					S747.5,543,747.5,480.3z"/>
			</defs>
			<clipPath id="SVGID_6_">
				<use xlink:href="#SVGID_5_"  style="overflow:visible;"/>
			</clipPath>
			<path class="st6" d="M513,534.8c4.4,0,64.9-23,125.3,76.2c35.4-8.6,35.4-8.6,35.4-8.6s-53.1-122.2-174-100.7
				C496.8,526.2,513,534.8,513,534.8z"/>
		</g>
		<g>
			<defs>
				<path id="SVGID_7_" d="M747.5,480.3c0-62.7-52.2-113.6-116.5-113.6s-116.5,50.9-116.5,113.6c0,62.7,52.2,113.6,116.5,113.6
					S747.5,543,747.5,480.3z"/>
			</defs>
			<clipPath id="SVGID_8_">
				<use xlink:href="#SVGID_7_"  style="overflow:visible;"/>
			</clipPath>
			<path class="st7" d="M501.2,455.7c0,0,141.6-18.7,209.4,135.2c39.8-33.1,33.9-38.8,33.9-38.8S669.3,399.6,513,419.8
				C486.4,434.1,501.2,455.7,501.2,455.7z"/>
		</g>
		<g>
			<defs>
				<path id="SVGID_9_" d="M747.5,480.3c0-62.7-52.2-113.6-116.5-113.6s-116.5,50.9-116.5,113.6c0,62.7,52.2,113.6,116.5,113.6
					S747.5,543,747.5,480.3z"/>
			</defs>
			<clipPath id="SVGID_10_">
				<use xlink:href="#SVGID_9_"  style="overflow:visible;"/>
			</clipPath>
			<path class="st8" d="M549.9,392.4c0,0,122.4-12.9,202,103.5c1.5-11.5,1.5-27.3,1.5-27.3s-57.5-107.9-177-90.6
				C566.1,379.5,549.9,392.4,549.9,392.4z"/>
		</g>
	</g>
</g>
<g id="LOGO_1_-_COLOR_1">
	<g>
		<path class="st9" d="M935.6,379.2v99.3h-17v-70.3l-32.8,50.6l-32.6-50.6v70.3h-17v-99.3h18.6l31.1,48.2l31.2-48.2H935.6z"/>
		<path class="st9" d="M976.7,396.3v24.1h37l4.3,17h-41.3v24.1h49.8v17h-66.8v-99.3h66.8v17H976.7z"/>
		<path class="st9" d="M1117.6,379.3v59.6c0,5.8-1.1,11.2-3.3,16.2c-2.2,5.1-5.2,9.5-8.9,13.3c-3.8,3.8-8.2,6.8-13.3,8.9
			c-5.1,2.2-10.5,3.3-16.3,3.3c-5.8,0-11.2-1.1-16.2-3.3c-5-2.2-9.4-5.2-13.2-8.9l12.1-12.1c4.8,4.8,10.6,7.2,17.3,7.2
			c6.9,0,12.8-2.4,17.6-7.2c2.4-2.4,4.2-5,5.4-8c1.2-3,1.8-6.1,1.8-9.4v-59.6H1117.6z"/>
		<path class="st9" d="M1158.7,478.6h-17v-99.1h17V478.6z"/>
		<path class="st9" d="M1288.3,478.6h-18.7l-7.7-17l-7.7-17l-20.1-44.5l-20.1,44.5h25.8l7.7,17h-41.1l-7.7,17H1180l44.8-99.3h18.7
			L1288.3,478.6z"/>
		<path class="st9" d="M1374.3,450.2c0,4.6-0.8,8.8-2.3,12.6c-1.5,3.7-3.7,6.9-6.5,9.5c-2.8,2.6-6.2,4.6-10.1,6
			c-4,1.4-8.4,2.1-13.3,2.1c-7.8,0-14.8-1.3-21-3.8c-6.1-2.5-11.2-5.4-15.2-8.6l11.8-11.8c3.1,2.8,6.6,5,10.5,6.5
			c2.4,0.9,4.6,1.6,6.7,1.8c2.1,0.3,3.8,0.4,5.1,0.4c2.5,0,4.7-0.3,6.7-0.9c2-0.6,3.8-1.4,5.3-2.5c3.2-2.4,4.8-5.5,4.8-9.4
			c0-2.4-0.9-4.5-2.6-6.4c-1.3-1.5-3-2.7-5.1-3.7c-1.7-0.9-3.5-1.7-5.4-2.3c-1.9-0.6-3.6-1.1-5.1-1.6c-0.5-0.2-0.9-0.3-1.3-0.4
			c-0.4,0-0.7-0.2-1-0.4c-0.2,0-0.5-0.1-0.9-0.3c-2-0.6-4.8-1.6-8.6-3c-3.7-1.4-7.4-3.4-11.1-5.8c-8.6-5.8-12.9-12.9-12.9-21.3
			c0-5.6,1-10.3,2.9-14.1c1.9-3.8,4.5-6.9,7.6-9.4s6.6-4.1,10.4-5.2c3.8-1,7.6-1.6,11.3-1.6c6.8,0,12.5,0.8,17.2,2.4
			c4.6,1.6,8.3,3.2,11.1,4.8c1.4,0.9,2.6,1.7,3.6,2.5c1,0.8,1.9,1.5,2.6,2.2l-12.1,12.2c-2.6-2.6-5.2-4.5-7.8-5.8
			c-4-1.9-8.1-2.8-12.5-2.8c-1.9,0-3.8,0.2-5.7,0.7c-1.9,0.5-3.5,1.1-5,1.8c-4.2,2.6-6.2,5.9-6.2,10.1c0,2.6,0.9,4.7,2.6,6.5
			c1.2,1.4,2.9,2.7,5.1,3.8c1.8,0.9,3.7,1.7,5.7,2.3s3.8,1.1,5.5,1.6l1.7,0.4c0.5,0.2,1.4,0.5,2.7,0.9c1.3,0.4,2.9,0.9,4.7,1.7
			c1.8,0.8,3.8,1.7,5.9,2.7c2.1,1,4.2,2.3,6.3,3.7C1369.7,434.9,1374.3,442,1374.3,450.2z"/>
	</g>
	<g>
		<path class="st10" d="M867.4,563.5h-12.1c-2.5,0-4.8-0.5-7-1.4c-2.2-1-4.1-2.3-5.7-3.9c-1.6-1.6-2.9-3.6-3.8-5.8
			c-1-2.2-1.4-4.5-1.4-7v-47.9l13.2-3.3v21h7.7l3.3,13.2h-11v17c0,1.4,0.5,2.6,1.4,3.5c1,1,2.1,1.4,3.4,1.4h8.8L867.4,563.5z"/>
		<path class="st10" d="M909.7,542.7h-28.8c0.7,1.7,1.8,3.2,3.2,4.5c1.5,1.5,3.3,2.7,5.2,3.5c1.9,0.8,3.9,1.2,6,1.2
			c3,0,5.7-0.7,8-2.1l13.7,5.5c-2.6,3.1-5.8,5.5-9.6,7.2s-7.8,2.6-12.2,2.6c-4,0-7.8-0.8-11.3-2.3s-6.6-3.6-9.2-6.2
			s-4.7-5.7-6.2-9.2c-1.5-3.5-2.3-7.2-2.3-11.2c0-4,0.8-7.8,2.3-11.3c1.5-3.5,3.6-6.6,6.2-9.2c2.6-2.6,5.7-4.7,9.2-6.2
			c3.5-1.5,7.3-2.3,11.3-2.3c4,0,7.8,0.8,11.3,2.3c3.5,1.5,6.6,3.6,9.2,6.2c2.6,2.6,4.7,5.7,6.2,9.2c1.5,3.5,2.3,7.3,2.3,11.3
			c0,2.3-0.3,4.5-0.8,6.6H909.7z M895.3,520.2c-4.2,0-8,1.5-11.2,4.6c-1.4,1.4-2.5,2.9-3.2,4.6h28.8c-0.7-1.7-1.8-3.2-3.2-4.6
			C903.4,521.8,899.7,520.2,895.3,520.2z"/>
		<path class="st10" d="M978.2,556.5c-2.6,2.6-5.7,4.7-9.2,6.2c-3.5,1.5-7.3,2.3-11.3,2.3c-4,0-7.8-0.8-11.3-2.3s-6.6-3.6-9.2-6.2
			s-4.7-5.7-6.2-9.2c-1.5-3.5-2.3-7.2-2.3-11.2c0-4,0.8-7.8,2.3-11.3c1.5-3.5,3.6-6.6,6.2-9.2c2.6-2.6,5.7-4.7,9.2-6.2
			c3.5-1.5,7.3-2.3,11.3-2.3c4,0,7.8,0.8,11.3,2.3c3.5,1.5,6.6,3.6,9.2,6.2l-9.3,9.3c-3.1-3.1-6.8-4.6-11.2-4.6
			c-4.2,0-8,1.5-11.2,4.6c-3.1,3.1-4.6,6.8-4.6,11.2c0,4.3,1.5,8,4.6,11.1c1.5,1.5,3.3,2.7,5.2,3.5c1.9,0.8,3.9,1.2,6,1.2
			c4.5,0,8.2-1.5,11.2-4.6L978.2,556.5z"/>
		<path class="st10" d="M1010.3,507.1c3.6,0,6.8,0.7,9.8,2c2.9,1.4,5.4,3.2,7.5,5.6c2.1,2.4,3.7,5.1,4.8,8.3
			c1.1,3.1,1.7,6.5,1.7,10.1v30.4H1021v-30.4c0-1.8-0.3-3.4-1-4.9c-0.7-1.5-1.6-2.9-2.9-4.2c-2.5-2.5-5.5-3.7-9-3.7
			c-3.6,0-6.6,1.2-9.1,3.7c-2.5,2.5-3.7,5.5-3.7,9.1v30.4h-13.2v-76.9h13.2V513c2-1.8,4.2-3.2,6.7-4.3
			C1004.4,507.6,1007.2,507.1,1010.3,507.1z"/>
		<path class="st10" d="M1068.4,507.1c3.6,0,6.8,0.7,9.8,2c2.9,1.4,5.4,3.2,7.5,5.6c2.1,2.4,3.7,5.1,4.8,8.3
			c1.1,3.1,1.7,6.5,1.7,10.1v30.4h-13.2v-30.4c0-3.7-1.3-6.7-3.8-9.1c-2.5-2.5-5.5-3.7-9-3.7c-3.6,0-6.6,1.2-9.1,3.7
			c-2.5,2.5-3.7,5.5-3.7,9.1v30.4h-13.2v-54.9h13.2v4.2c2-1.7,4.2-3.1,6.7-4.1C1062.6,507.6,1065.3,507.1,1068.4,507.1z"/>
		<path class="st10" d="M1126.2,507.1c4,0,7.8,0.8,11.3,2.3c3.5,1.5,6.6,3.6,9.2,6.2c2.6,2.6,4.7,5.7,6.2,9.2
			c1.5,3.5,2.3,7.3,2.3,11.3c0,4-0.8,7.7-2.3,11.2c-1.5,3.5-3.6,6.6-6.2,9.2s-5.7,4.7-9.2,6.2c-3.5,1.5-7.3,2.3-11.3,2.3
			s-7.8-0.8-11.3-2.3s-6.6-3.6-9.2-6.2c-2.6-2.6-4.7-5.7-6.2-9.2c-1.5-3.5-2.3-7.2-2.3-11.2c0-4,0.8-7.8,2.3-11.3
			c1.5-3.5,3.6-6.6,6.2-9.2c2.6-2.6,5.7-4.7,9.2-6.2C1118.4,507.8,1122.2,507.1,1126.2,507.1z M1126.2,520.2
			c-4.4,0-8.1,1.5-11.2,4.6c-3.1,3.1-4.6,6.8-4.6,11.2c0,4.3,1.5,8,4.6,11.1c1.5,1.5,3.2,2.7,5.1,3.5c1.9,0.8,4,1.2,6.1,1.2
			s4.1-0.4,6-1.2c1.9-0.8,3.6-1.9,5.2-3.5c3.1-3.1,4.6-6.8,4.6-11.1c0-4.4-1.5-8.1-4.6-11.2C1134.2,521.8,1130.4,520.2,1126.2,520.2
			z"/>
		<path class="st10" d="M1161.2,563.5v-76.9h13.2v76.9H1161.2z"/>
		<path class="st10" d="M1209.5,507.1c4,0,7.8,0.8,11.3,2.3c3.5,1.5,6.6,3.6,9.2,6.2c2.6,2.6,4.7,5.7,6.2,9.2
			c1.5,3.5,2.3,7.3,2.3,11.3c0,4-0.8,7.7-2.3,11.2c-1.5,3.5-3.6,6.6-6.2,9.2s-5.7,4.7-9.2,6.2c-3.5,1.5-7.3,2.3-11.3,2.3
			s-7.8-0.8-11.3-2.3s-6.6-3.6-9.2-6.2c-2.6-2.6-4.7-5.7-6.2-9.2c-1.5-3.5-2.3-7.2-2.3-11.2c0-4,0.8-7.8,2.3-11.3
			c1.5-3.5,3.6-6.6,6.2-9.2c2.6-2.6,5.7-4.7,9.2-6.2C1201.7,507.8,1205.4,507.1,1209.5,507.1z M1209.5,520.2
			c-4.4,0-8.1,1.5-11.2,4.6c-3.1,3.1-4.6,6.8-4.6,11.2c0,4.3,1.5,8,4.6,11.1c1.5,1.5,3.2,2.7,5.1,3.5c1.9,0.8,4,1.2,6.1,1.2
			s4.1-0.4,6-1.2c1.9-0.8,3.6-1.9,5.2-3.5c3.1-3.1,4.6-6.8,4.6-11.1c0-4.4-1.5-8.1-4.6-11.2C1217.4,521.8,1213.7,520.2,1209.5,520.2
			z"/>
		<path class="st10" d="M1300.8,558c0,4-0.8,7.7-2.3,11.2c-1.5,3.5-3.6,6.6-6.2,9.2c-2.6,2.6-5.7,4.7-9.2,6.3
			c-3.5,1.5-7.3,2.3-11.3,2.3c-3.3,0-6.4-0.5-9.3-1.5c-2.9-1-5.6-2.5-8.1-4.4l9.6-9.4c2.3,1.5,5,2.2,7.9,2.2c4.5,0,8.2-1.6,11.2-4.7
			c3.1-3.1,4.6-6.8,4.6-11.1V536c0-4.2-1.5-8-4.6-11.2c-3.1-3.1-6.8-4.6-11.2-4.6c-4.2,0-8,1.5-11.2,4.6c-3.1,3.2-4.6,7-4.6,11.2
			c0,4.4,1.5,8.1,4.6,11.2c3.2,3.1,7,4.6,11.2,4.6c2.2,0,4.2-0.4,5.9-1.1l4.9,12.3c-3.3,1.3-6.8,2-10.7,2h-0.2
			c-4,0-7.7-0.8-11.2-2.3s-6.6-3.6-9.2-6.2c-2.6-2.6-4.7-5.7-6.3-9.2c-1.5-3.5-2.3-7.3-2.3-11.3c0-4,0.7-7.8,2-11.3
			c1.3-3.5,3.2-6.6,5.5-9.2c2.4-2.6,5.2-4.7,8.6-6.2c3.3-1.5,7-2.3,10.9-2.3c3.8,0,7.2,0.6,10.1,1.7c2.9,1.1,5.5,2.5,7.7,4.2v-4.3
			h13.2V558z"/>
		<path class="st10" d="M1369.6,508.6l-25.5,54.9l-3.4,7.5c-2.1,4.5-5.1,8-9.2,10.7c-4.1,2.6-8.6,4-13.6,4h-5.8l3.3-13.2h3.2
			c2.1,0,4.1-0.6,5.9-1.8c1.8-1.2,3.2-2.7,4.1-4.7l1.1-2.4l-25.5-54.9h14.5l18.2,39.3l18.2-39.3H1369.6z"/>
	</g>
	<circle class="st9" cx="633.9" cy="480.6" r="155.2"/>
	<g>
		<g>
			<defs>
				<path id="SVGID_11_" d="M747.5,480.3c0-62.7-52.2-113.6-116.5-113.6s-116.5,50.9-116.5,113.6c0,62.7,52.2,113.6,116.5,113.6
					S747.5,543,747.5,480.3z"/>
			</defs>
			<clipPath id="SVGID_12_">
				<use xlink:href="#SVGID_11_"  style="overflow:visible;"/>
			</clipPath>
			<path class="st11" d="M529.2,533.4c0,0,51.6,54.6,171.1,38.8c29.5,0,41.3-2.9,41.3-2.9s-3.4-38.7-7.9-35.8
				c-4.4,2.9-154.4-0.1-216.3-30.3C495.3,543.4,529.2,533.4,529.2,533.4z"/>
		</g>
		<g>
			<defs>
				<path id="SVGID_13_" d="M747.5,480.3c0-62.7-52.2-113.6-116.5-113.6s-116.5,50.9-116.5,113.6c0,62.7,52.2,113.6,116.5,113.6
					S747.5,543,747.5,480.3z"/>
			</defs>
			<clipPath id="SVGID_14_">
				<use xlink:href="#SVGID_13_"  style="overflow:visible;"/>
			</clipPath>
			<path class="st12" d="M518.9,455.7c0,0,72.3,46.9,230.1,32.5c2.9-8.6-3.2-31.7-3.2-31.7s-138.4,0.6-210.7-35.4
				C513,426.9,520.4,435.6,518.9,455.7z"/>
		</g>
		<g>
			<defs>
				<path id="SVGID_15_" d="M747.5,480.3c0-62.7-52.2-113.6-116.5-113.6s-116.5,50.9-116.5,113.6c0,62.7,52.2,113.6,116.5,113.6
					S747.5,543,747.5,480.3z"/>
			</defs>
			<clipPath id="SVGID_16_">
				<use xlink:href="#SVGID_15_"  style="overflow:visible;"/>
			</clipPath>
			<path class="st13" d="M513,534.8c4.4,0,64.9-23,125.3,76.2c35.4-8.6,35.4-8.6,35.4-8.6s-53.1-122.2-174-100.7
				C496.8,526.2,513,534.8,513,534.8z"/>
		</g>
		<g>
			<defs>
				<path id="SVGID_17_" d="M747.5,480.3c0-62.7-52.2-113.6-116.5-113.6s-116.5,50.9-116.5,113.6c0,62.7,52.2,113.6,116.5,113.6
					S747.5,543,747.5,480.3z"/>
			</defs>
			<clipPath id="SVGID_18_">
				<use xlink:href="#SVGID_17_"  style="overflow:visible;"/>
			</clipPath>
			<path class="st14" d="M501.2,455.7c0,0,141.6-18.7,209.4,135.2c39.8-33.1,33.9-38.8,33.9-38.8S669.3,399.6,513,419.8
				C486.4,434.1,501.2,455.7,501.2,455.7z"/>
		</g>
		<g>
			<defs>
				<path id="SVGID_19_" d="M747.5,480.3c0-62.7-52.2-113.6-116.5-113.6s-116.5,50.9-116.5,113.6c0,62.7,52.2,113.6,116.5,113.6
					S747.5,543,747.5,480.3z"/>
			</defs>
			<clipPath id="SVGID_20_">
				<use xlink:href="#SVGID_19_"  style="overflow:visible;"/>
			</clipPath>
			<path class="st15" d="M549.9,392.4c0,0,122.4-12.9,202,103.5c1.5-11.5,1.5-27.3,1.5-27.3s-57.5-107.9-177-90.6
				C566.1,379.5,549.9,392.4,549.9,392.4z"/>
		</g>
	</g>
</g>
</svg>
