<?xml version="1.0" encoding="utf-8"?>
<!-- Generator: Adobe Illustrator 22.0.1, SVG Export Plug-In . SVG Version: 6.00 Build 0)  -->
<svg version="1.1" id="LOGO_1" xmlns="http://www.w3.org/2000/svg" xmlns:xlink="http://www.w3.org/1999/xlink" x="0px" y="0px"
	 viewBox="0 0 1920 1080" style="enable-background:new 0 0 1920 1080;" xml:space="preserve">
<style type="text/css">
	.st0{fill:#2CAAFF;}
	.st1{fill:#FFFFFF;}
</style>
<circle class="st0" cx="991.7" cy="835.6" r="155.2"/>
<g>
	<path class="st1" d="M991.7,719.6c-65.2,0-118,52.8-118,118s52.8,118,118,118s118-52.8,118-118S1056.9,719.6,991.7,719.6z
		 M1061.8,907.7c-9.1,9.1-19.7,16.3-31.5,21.2c-3,1.3-6,2.4-9.1,3.3v-17.7c0-9.3-3.2-16.1-9.6-20.5c4-0.4,7.7-0.9,11-1.6
		c3.3-0.7,6.9-1.7,10.6-3c3.7-1.3,7.1-2.9,10-4.7c3-1.8,5.8-4.1,8.5-7c2.7-2.9,5-6.1,6.9-9.8c1.8-3.6,3.3-8,4.4-13.1
		c1.1-5.1,1.6-10.7,1.6-16.9c0-11.9-3.9-22-11.6-30.4c3.5-9.2,3.1-19.2-1.2-30.1l-2.9-0.3c-2-0.2-5.6,0.6-10.8,2.5
		c-5.2,1.9-11,5.1-17.5,9.4c-9.1-2.5-18.6-3.8-28.5-3.8c-9.9,0-19.4,1.3-28.3,3.8c-4.1-2.8-7.9-5.1-11.6-6.9c-3.6-1.8-6.6-3-8.8-3.7
		c-2.2-0.7-4.2-1.1-6.1-1.2c-1.9-0.2-3.1-0.2-3.6-0.1s-0.9,0.2-1.2,0.2c-4.3,10.9-4.7,20.9-1.2,30.1c-7.8,8.4-11.6,18.5-11.6,30.4
		c0,6.1,0.5,11.8,1.6,16.9s2.5,9.5,4.4,13.1s4.1,6.9,6.9,9.8c2.7,2.9,5.6,5.2,8.5,7c3,1.8,6.3,3.4,10,4.7s7.3,2.3,10.6,3
		c3.3,0.7,7,1.2,11,1.6c-6.3,4.3-9.4,11.1-9.4,20.5v18c-3.5-1-6.9-2.3-10.3-3.7c-11.8-5-22.4-12.1-31.5-21.2
		c-9.1-9.1-16.3-19.7-21.2-31.5c-5.2-12.2-7.8-25.2-7.8-38.6c0-13.4,2.6-26.4,7.8-38.6c5-11.8,12.1-22.4,21.2-31.5
		c9.1-9.1,19.7-16.3,31.5-21.2c12.2-5.2,25.2-7.8,38.6-7.8c13.4,0,26.4,2.6,38.6,7.8c11.8,5,22.4,12.1,31.5,21.2
		c9.1,9.1,16.3,19.7,21.2,31.5c5.2,12.2,7.8,25.2,7.8,38.6c0,13.4-2.6,26.4-7.8,38.6C1078.1,888,1070.9,898.6,1061.8,907.7z"/>
</g>
</svg>
