<?xml version="1.0" encoding="utf-8"?>
<!-- Generator: Adobe Illustrator 22.0.1, SVG Export Plug-In . SVG Version: 6.00 Build 0)  -->
<svg version="1.1" id="LOGO_1" xmlns="http://www.w3.org/2000/svg" xmlns:xlink="http://www.w3.org/1999/xlink" x="0px" y="0px"
	 viewBox="0 0 1920 1080" style="enable-background:new 0 0 1920 1080;" xml:space="preserve">
<style type="text/css">
	.st0{fill:#2CAAFF;}
	.st1{fill:#FFFFFF;}
</style>
<circle class="st0" cx="991.7" cy="835.6" r="155.2"/>
<g>
	<path class="st1" d="M1035.9,744.6h-81.5c-27.7,0-50.2,22.5-50.2,50.2v81.5c0,27.7,22.5,50.2,50.2,50.2h81.5
		c27.7,0,50.2-22.5,50.2-50.2v-81.5C1086.1,767.2,1063.6,744.6,1035.9,744.6L1035.9,744.6z M1070,876.4c0,18.8-15.3,34.1-34.1,34.1
		h-81.5c-18.8,0-34.1-15.3-34.1-34.1v-81.5c0-18.8,15.3-34.1,34.1-34.1h81.5c18.8,0,34.1,15.3,34.1,34.1V876.4z M1070,876.4"/>
	<path class="st1" d="M995.1,788.7c-25.9,0-46.9,21-46.9,46.9c0,25.9,21,46.9,46.9,46.9c25.9,0,46.9-21,46.9-46.9
		C1042,809.8,1021,788.7,995.1,788.7L995.1,788.7z M995.1,866.4c-17,0-30.8-13.8-30.8-30.7c0-17,13.8-30.7,30.8-30.7
		c17,0,30.8,13.8,30.8,30.7C1025.9,852.6,1012.1,866.4,995.1,866.4L995.1,866.4z M995.1,866.4"/>
	<path class="st1" d="M1044,775c-3.1,0-6.2,1.3-8.4,3.5c-2.2,2.2-3.5,5.3-3.5,8.4c0,3.1,1.3,6.2,3.5,8.4c2.2,2.2,5.3,3.5,8.4,3.5
		c3.1,0,6.2-1.3,8.4-3.5c2.2-2.2,3.5-5.3,3.5-8.4c0-3.1-1.3-6.2-3.5-8.4C1050.2,776.3,1047.1,775,1044,775L1044,775z M1044,775"/>
</g>
</svg>
