<?xml version="1.0" encoding="utf-8"?>
<!-- Generator: Adobe Illustrator 22.0.1, SVG Export Plug-In . SVG Version: 6.00 Build 0)  -->
<svg version="1.1" id="LOGO_1" xmlns="http://www.w3.org/2000/svg" xmlns:xlink="http://www.w3.org/1999/xlink" x="0px" y="0px"
	 viewBox="0 0 1920 1080" style="enable-background:new 0 0 1920 1080;" xml:space="preserve">
<style type="text/css">
	.st0{fill:#2CAAFF;}
	.st1{fill:#FFFFFF;}
</style>
<circle class="st0" cx="991.7" cy="835.6" r="155.2"/>
<path class="st1" d="M1069.6,835.9v57.6h-33.4v-53.7c0-13.5-4.8-22.7-16.9-22.7c-9.2,0-14.7,6.2-17.1,12.2c-0.9,2.1-1.1,5.1-1.1,8.1
	v56.1h-33.4c0,0,0.5-91,0-100.4h33.4v14.2c-0.1,0.1-0.2,0.2-0.2,0.3h0.2v-0.3c4.4-6.8,12.3-16.6,30.1-16.6
	C1053.1,790.7,1069.6,805.1,1069.6,835.9L1069.6,835.9z M932.8,744.7c-11.4,0-18.9,7.5-18.9,17.3c0,9.6,7.2,17.3,18.4,17.3h0.2
	c11.6,0,18.9-7.7,18.9-17.3C951.2,752.2,944.2,744.7,932.8,744.7L932.8,744.7z M915.9,893.4h33.4V793.1h-33.4V893.4z M915.9,893.4"
	/>
</svg>
