<?xml version="1.0" encoding="utf-8"?>
<!-- Generator: Adobe Illustrator 22.0.1, SVG Export Plug-In . SVG Version: 6.00 Build 0)  -->
<svg version="1.1" xmlns="http://www.w3.org/2000/svg" xmlns:xlink="http://www.w3.org/1999/xlink" x="0px" y="0px"
	 viewBox="0 0 120 120" style="enable-background:new 0 0 120 120;" xml:space="preserve">
<style type="text/css">
	.st0{enable-background:new    ;}
	.st1{fill-rule:evenodd;clip-rule:evenodd;fill:#FFFFFF;}
</style>
<g id="Lines_3_1_" class="st0">
	<g id="Lines_3">
		<g>
			<path class="st1" d="M103.9,87.7H17.3c-2,0-3.6,1.6-3.6,3.6v4.3c0,2,1.6,3.6,3.6,3.6h86.6c2,0,3.6-1.6,3.6-3.6v-4.3
				C107.5,89.3,105.9,87.7,103.9,87.7z"/>
		</g>
	</g>
</g>
<g id="Lines_2_1_" class="st0">
	<g id="Lines_2">
		<g>
			<path class="st1" d="M103.9,53.3H17.3c-2,0-3.6,1.6-3.6,3.6v4.3c0,2,1.6,3.6,3.6,3.6h86.6c2,0,3.6-1.6,3.6-3.6v-4.3
				C107.5,54.9,105.9,53.3,103.9,53.3z"/>
		</g>
	</g>
</g>
<g id="Lines_1_1_" class="st0">
	<g id="Lines_1">
		<g>
			<path class="st1" d="M103.9,19H17.3c-2,0-3.6,1.6-3.6,3.6v4.3c0,2,1.6,3.6,3.6,3.6h86.6c2,0,3.6-1.6,3.6-3.6v-4.3
				C107.5,20.6,105.9,19,103.9,19z"/>
		</g>
	</g>
</g>
</svg>
