<?xml version="1.0" encoding="utf-8"?>
<!-- Generator: Adobe Illustrator 22.0.1, SVG Export Plug-In . SVG Version: 6.00 Build 0)  -->
<svg version="1.1" id="LOGO_1" xmlns="http://www.w3.org/2000/svg" xmlns:xlink="http://www.w3.org/1999/xlink" x="0px" y="0px"
	 viewBox="0 0 1920 1080" style="enable-background:new 0 0 1920 1080;" xml:space="preserve">
<style type="text/css">
	.st0{fill:#2CAAFF;}
	.st1{fill:#FFFFFF;}
</style>
<circle class="st0" cx="991.7" cy="835.6" r="155.2"/>
<path class="st1" d="M1085,790.5c-6.3,2.8-13,4.7-20.1,5.5c7.2-4.3,12.8-11.2,15.4-19.4c-6.8,4-14.3,6.9-22.3,8.5
	c-6.4-6.8-15.5-11.1-25.6-11.1c-19.4,0-35.1,15.7-35.1,35.1c0,2.7,0.3,5.4,0.9,8c-29.1-1.5-55-15.4-72.3-36.6
	c-3,5.2-4.7,11.2-4.7,17.6c0,12.2,6.2,22.9,15.6,29.2c-5.7-0.2-11.1-1.8-15.9-4.4c0,0.2,0,0.3,0,0.4c0,17,12.1,31.2,28.1,34.4
	c-2.9,0.8-6,1.2-9.2,1.2c-2.3,0-4.5-0.2-6.6-0.6c4.5,13.9,17.4,24.1,32.8,24.4c-12,9.4-27.1,15-43.6,15c-2.8,0-5.6-0.2-8.4-0.5
	c15.5,9.9,33.9,15.8,53.7,15.8c64.5,0,99.8-53.4,99.8-99.8c0-1.5,0-3-0.1-4.5C1074.4,803.7,1080.3,797.6,1085,790.5L1085,790.5z"/>
</svg>
