<?xml version="1.0" encoding="utf-8"?>
<!-- Generator: Adobe Illustrator 22.0.1, SVG Export Plug-In . SVG Version: 6.00 Build 0)  -->
<svg version="1.1" id="Modo_de_aislamiento" xmlns="http://www.w3.org/2000/svg" xmlns:xlink="http://www.w3.org/1999/xlink"
	 x="0px" y="0px" viewBox="0 0 1920 1080" style="enable-background:new 0 0 1920 1080;" xml:space="preserve">
<style type="text/css">
	.st0{fill:#2CAAFF;}
	.st1{fill:#FFFFFF;}
</style>
<g>
	<rect x="1012.1" y="770.2" class="st0" width="172.8" height="12.8"/>
	<rect x="1012.1" y="795.8" class="st0" width="108.8" height="12.8"/>
	<rect x="1012.1" y="821.4" class="st0" width="108.8" height="12.8"/>
	<rect x="1063.3" y="744.6" class="st0" width="121.6" height="12.8"/>
	<rect x="1037.7" y="744.6" class="st0" width="12.8" height="12.8"/>
	<rect x="1024.9" y="968.6" class="st0" width="12.8" height="12.8"/>
	<path class="st0" d="M946.3,755.5l-9.1-9.1l-12.8,12.8c-2.5,2.5-2.5,6.6,0,9.1l12.8,12.8l9.1-9l-8.3-8.3L946.3,755.5z M946.3,755.5
		"/>
	<path class="st0" d="M997.5,759.3l-12.8-12.8l-9.1,9.1l8.3,8.3l-8.3,8.3l9.1,9l12.8-12.8C1000,765.8,1000,761.8,997.5,759.3
		L997.5,759.3z M997.5,759.3"/>
	<path class="st0" d="M948.4,781l12.8-38.4l12.1,4.1L960.6,785L948.4,781z M948.4,781"/>
	<path class="st0" d="M1172.1,911v-51.2h-12.8V911h-12.8v-64h-12.8v64h-12.8v-32h-12.8v32h-12.8v-38.4h-12.8V911h-12.8v-25.6h-12.8
		V911h-12.8v12.8h140.8V911H1172.1z M1172.1,911"/>
	<path class="st1" d="M1178.5,712.6H884.1c-21.2,0-38.4,17.2-38.4,38.4v217.6c0,21.2,17.2,38.4,38.4,38.4h79.2l-25.6,51.2h-34.4
		c-10.6,0-19.2,8.6-19.2,19.2c0,10.6,8.6,19.2,19.2,19.2h256c10.6,0,19.2-8.6,19.2-19.2c0-10.6-8.6-19.2-19.2-19.2h-34.4l-25.6-51.2
		h79.2c21.2,0,38.4-17.2,38.4-38.4V751C1216.9,729.8,1199.7,712.6,1178.5,712.6L1178.5,712.6z M858.5,802.6l14.5,17.3
		c1.2,1.4,3,2.3,4.9,2.3h19.6c1.9,0,3.7-0.8,4.9-2.3l14.6-17.3l14.4,4.7l1.6,22.5c0.1,1.9,1.1,3.6,2.6,4.7l15.9,11.5
		c1.5,1.1,3.5,1.5,5.3,1l22-5.5l8.9,12.2l-12,19.2c-1,1.6-1.2,3.6-0.6,5.4l6.1,18.6c0.6,1.8,1.9,3.2,3.7,4l21,8.5v15.1l-21,8.5
		c-1.8,0.7-3.1,2.2-3.7,4l-1.9,5.9h-36.9c14.3-30,1.6-66-28.4-80.3c-17.6-8.4-38.3-7.8-55.3,1.8V802.6z M858.5,879.6
		c20.7-16.1,50.6-12.5,66.7,8.2c12.5,16,13.4,38.1,2.4,55.1h-69.1V879.6z M1159.3,1071c3.5,0,6.4,2.9,6.4,6.4c0,3.5-2.9,6.4-6.4,6.4
		h-256c-3.5,0-6.4-2.9-6.4-6.4c0-3.5,2.9-6.4,6.4-6.4H1159.3z M1110.6,1058.2H952.1l25.6-51.2H1085L1110.6,1058.2z M1204.1,968.6
		c0,14.1-11.5,25.6-25.6,25.6H884.1c-14.1,0-25.6-11.5-25.6-25.6v-12.8h345.6V968.6z M1204.1,943H994.6l20-8.1c2.4-1,4-3.3,4-5.9
		v-23.7c0-2.6-1.6-5-4-5.9l-22.2-9l-4.2-13l12.7-20.4c1.4-2.2,1.3-5-0.3-7.1l-13.9-19.2c-1.5-2.1-4.2-3.1-6.7-2.5l-23.3,5.8l-11-8
		l-1.7-23.9c-0.2-2.6-1.9-4.8-4.4-5.6l-22.6-7.3c-2.5-0.8-5.2,0-6.9,2l-15.4,18.3H881l-15.4-18.3c-1.7-2-4.4-2.8-6.9-2l-0.2,0.1V751
		c0-14.1,11.5-25.6,25.6-25.6h294.4c14.1,0,25.6,11.5,25.6,25.6V943z M1204.1,943"/>
</g>
</svg>
