<?xml version="1.0" encoding="utf-8"?>
<!-- Generator: Adobe Illustrator 22.0.1, SVG Export Plug-In . SVG Version: 6.00 Build 0)  -->
<svg version="1.1" id="Modo_de_aislamiento" xmlns="http://www.w3.org/2000/svg" xmlns:xlink="http://www.w3.org/1999/xlink"
	 x="0px" y="0px" viewBox="0 0 1920 1080" style="enable-background:new 0 0 1920 1080;" xml:space="preserve">
<style type="text/css">
	.st0{clip-path:url(#SVGID_2_);fill:#FFFFFF;}
	.st1{fill:#2CAAFF;}
</style>
<g>
	<g>
		<defs>
			<rect id="SVGID_1_" x="728" y="681" width="372" height="385.9"/>
		</defs>
		<clipPath id="SVGID_2_">
			<use xlink:href="#SVGID_1_"  style="overflow:visible;"/>
		</clipPath>
		<path class="st0" d="M1061.2,726.8h-77.4c-17.6-38.5-63.1-55.5-101.6-37.9c-16.8,7.7-30.2,21.1-37.9,37.9h-77.5
			c-21.2,0-38.4,17.2-38.4,38.4v198.4c0,21.2,17.2,38.4,38.4,38.4h99.9l-8.5,25.6H786c-10.6,0-19.2,8.6-19.2,19.2
			c0,10.6,8.6,19.2,19.2,19.2h256c10.6,0,19.2-8.6,19.2-19.2c0-10.6-8.6-19.2-19.2-19.2h-72.2l-8.5-25.6h99.9
			c21.2,0,38.4-17.2,38.4-38.4V765.2C1099.6,744,1082.4,726.8,1061.2,726.8L1061.2,726.8z M914,694.8c35.3,0,64,28.7,64,64
			c0,35.3-28.7,64-64,64c-35.3,0-64-28.7-64-64C850,723.4,878.7,694.8,914,694.8L914,694.8z M1042,1040.4c3.5,0,6.4,2.9,6.4,6.4
			s-2.9,6.4-6.4,6.4H786c-3.5,0-6.4-2.9-6.4-6.4s2.9-6.4,6.4-6.4H1042z M871.7,1027.6l8.5-25.6h67.5l8.5,25.6H871.7z M1086.8,963.6
			c0,14.1-11.5,25.6-25.6,25.6H766.8c-14.1,0-25.6-11.5-25.6-25.6v-12.8h345.6V963.6z M1086.8,938H741.2V765.2
			c0-14.1,11.5-25.6,25.6-25.6h73c-5.6,21-1.9,43.5,10.2,61.6v42.6l-27.1,9c-4.7-13.2-19.3-20.2-32.5-15.5
			c-13.2,4.7-20.2,19.3-15.5,32.5s19.3,20.2,32.5,15.5c8.6-3,14.9-10.4,16.5-19.4l34.5-11.5c2.6-0.9,4.4-3.3,4.4-6.1v-32.5
			c9.1,8.2,20.1,14.1,32,17.2v37.5l-11.5,7.7c-12-8.2-28.5-5.1-36.7,6.9c-8.2,12-5.1,28.5,6.9,36.7c12,8.2,28.5,5.1,36.7-6.9
			c5.5-8,6.1-18.4,1.6-27l12.9-8.6c1.8-1.2,2.8-3.2,2.8-5.3v-38.7c2.1,0.2,4.2,0.3,6.4,0.3s4.3-0.1,6.4-0.3v25.9
			c0,2.1,1.1,4.1,2.8,5.3l12.9,8.6c-1.9,3.6-2.9,7.6-2.9,11.7c0,14.2,11.4,25.7,25.6,25.8c14.2,0,25.7-11.4,25.8-25.6
			c0-14.2-11.4-25.7-25.6-25.8c-5.1,0-10,1.5-14.2,4.3l-11.5-7.7V833c11.9-3.1,22.9-9,32-17.2V842c0,2.4,1.4,4.6,3.5,5.7l35.3,17.6
			c2.3,13.9,15.5,23.3,29.4,20.9c13.9-2.3,23.3-15.5,20.9-29.4c-2.3-13.9-15.5-23.3-29.4-21c-8.8,1.5-16.2,7.5-19.5,15.8L978,838
			v-36.9c12.1-18.1,15.8-40.5,10.3-61.6h72.9c14.1,0,25.6,11.5,25.6,25.6V938z M811.6,861.2c0,7.1-5.7,12.8-12.8,12.8
			c-7.1,0-12.8-5.7-12.8-12.8c0-7.1,5.7-12.8,12.8-12.8C805.9,848.4,811.6,854.1,811.6,861.2L811.6,861.2z M882,899.6
			c0,7.1-5.7,12.8-12.8,12.8s-12.8-5.7-12.8-12.8c0-7.1,5.7-12.8,12.8-12.8S882,892.5,882,899.6L882,899.6z M946,886.8
			c0-7.1,5.7-12.8,12.8-12.8c7.1,0,12.8,5.7,12.8,12.8c0,7.1-5.7,12.8-12.8,12.8C951.7,899.6,946,893.8,946,886.8L946,886.8z
			 M1016.4,861.2c0-7.1,5.7-12.8,12.8-12.8c7.1,0,12.8,5.7,12.8,12.8c0,7.1-5.7,12.8-12.8,12.8
			C1022.1,874,1016.4,868.2,1016.4,861.2L1016.4,861.2z M1016.4,861.2"/>
	</g>
	<rect x="907.6" y="963.6" class="st1" width="12.8" height="12.8"/>
	<path class="st1" d="M918.5,709.4c-2.5-2.5-6.6-2.5-9,0L883.9,735l9.1,9l14.7-14.7v42.1h12.8v-42.1l14.7,14.7l9.1-9L918.5,709.4z
		 M918.5,709.4"/>
	<path class="st1" d="M939.6,771.6v12.8h-51.2v-12.8h-12.8v19.2c0,3.5,2.9,6.4,6.4,6.4h64c3.5,0,6.4-2.9,6.4-6.4v-19.2H939.6z
		 M939.6,771.6"/>
	<rect x="760.4" y="784.4" class="st1" width="57.6" height="12.8"/>
	<rect x="760.4" y="810" class="st1" width="38.4" height="12.8"/>
	<rect x="786" y="758.8" class="st1" width="32" height="12.8"/>
	<rect x="760.4" y="758.8" class="st1" width="12.8" height="12.8"/>
	<rect x="760.4" y="906" class="st1" width="12.8" height="12.8"/>
	<rect x="786" y="906" class="st1" width="12.8" height="12.8"/>
	<rect x="811.6" y="906" class="st1" width="12.8" height="12.8"/>
	<rect x="1054.8" y="906" class="st1" width="12.8" height="12.8"/>
	<rect x="1029.2" y="906" class="st1" width="12.8" height="12.8"/>
	<rect x="1003.6" y="906" class="st1" width="12.8" height="12.8"/>
	<rect x="1010" y="784.4" class="st1" width="57.6" height="12.8"/>
	<rect x="1010" y="810" class="st1" width="38.4" height="12.8"/>
	<rect x="1035.6" y="758.8" class="st1" width="32" height="12.8"/>
	<rect x="1010" y="758.8" class="st1" width="12.8" height="12.8"/>
</g>
</svg>
